<svg width="276" height="156" viewBox="0 0 276 156" fill="none" xmlns="http://www.w3.org/2000/svg">
<g clip-path="url(#clip0_1253_10965)">
<rect x="-111" y="-84" width="483" height="306" rx="2" fill="black"/>
<g clip-path="url(#clip1_1253_10965)">
<path d="M94.5464 89.9685H92.653V82.6055H94.5464V89.9685Z" fill="white"/>
<path d="M105.663 82.6055V89.9685H103.086L98.07 84.4462V89.9685H96.1767V82.6055H98.7439L103.77 88.1376V82.6055H105.663Z" fill="white"/>
<path d="M108.97 87.4344C108.97 88.2134 109.601 88.5717 112.001 88.5717C113.989 88.5717 114.588 88.3514 114.588 87.7729C114.588 87.1615 114.167 87.0563 111.78 86.9413C108.572 86.7934 107.3 86.2905 107.3 84.6371C107.3 82.9837 108.95 82.5005 111.708 82.5005C114.466 82.5005 116.169 83.1941 116.169 85.0151H114.275C114.275 84.2065 113.467 84.006 111.498 84.006C109.637 84.006 109.194 84.1835 109.194 84.7324C109.194 85.2813 109.634 85.4062 111.78 85.5312C114.683 85.6889 116.481 85.8467 116.481 87.7072C116.481 89.6728 114.62 90.0739 111.895 90.0739C108.878 90.0739 107.077 89.5578 107.077 87.4344H108.97Z" fill="white"/>
<path d="M122.378 90.0737C119.137 90.0737 117.75 88.8443 117.75 86.2771V82.6055H119.643V86.2771C119.643 87.3092 119.926 88.486 122.378 88.486C124.83 88.486 125.113 87.2961 125.113 86.2771V82.6055H127.006V86.2771C127.006 88.8344 125.606 90.0737 122.378 90.0737Z" fill="white"/>
<path d="M135.628 87.7827L136.986 89.9719H134.757L133.567 88.0062H130.517V89.9719H128.623V82.6089H134.408C136.082 82.6089 137.229 83.6706 137.229 85.3108C137.229 86.5106 136.617 87.3916 135.631 87.7827H135.628ZM130.513 86.4153H133.879C134.448 86.4153 135.332 86.4153 135.332 85.3108C135.332 84.2064 134.448 84.1965 133.879 84.1965H130.513V86.4153Z" fill="white"/>
<path d="M145.535 88.404H141.127L140.338 89.9719H138.254L142.051 82.6089H144.608L148.415 89.9719H146.321L145.532 88.404H145.535ZM144.832 86.9938L143.339 84.0059L141.834 86.9938H144.832Z" fill="white"/>
<path d="M159.124 82.6055V89.9685H156.547L151.531 84.4462V89.9685H149.637V82.6055H152.205L157.231 88.1376V82.6055H159.124Z" fill="white"/>
<path d="M173.048 84.1109V85.6033H177.571V86.9707H173.048V88.463H178.938V89.9685H171.154V82.6055H178.938V84.1109H173.048Z" fill="white"/>
<path d="M165.165 88.4862C163.252 88.4862 162.431 87.7926 162.431 86.2773C162.431 84.762 163.239 84.0881 165.165 84.0881C166.622 84.0881 167.506 84.4892 167.775 85.4884H169.728C169.445 83.5293 167.979 82.5005 165.165 82.5005C161.924 82.5005 160.537 83.835 160.537 86.2773C160.537 88.7196 161.924 90.0739 165.165 90.0739C167.969 90.0739 169.435 89.0417 169.728 87.0859H167.772C167.496 88.0786 166.605 88.4862 165.169 88.4862H165.165Z" fill="white"/>
<path d="M232.011 68.3956C231.86 68.3956 231.718 68.3693 231.59 68.3167C231.462 68.2641 231.354 68.1885 231.258 68.0965C231.166 68.0012 231.094 67.8927 231.041 67.7645C230.989 67.6363 230.966 67.5015 230.966 67.3503C230.966 67.1991 230.992 67.0611 231.045 66.9329C231.097 66.8047 231.173 66.6929 231.268 66.6009C231.363 66.5056 231.475 66.4332 231.6 66.3806C231.728 66.3281 231.863 66.3018 232.011 66.3018C232.159 66.3018 232.297 66.3281 232.425 66.3839C232.553 66.4398 232.662 66.5121 232.757 66.6107C232.853 66.7061 232.928 66.8178 232.977 66.946C233.03 67.0742 233.056 67.209 233.056 67.3503C233.056 67.4917 233.03 67.6363 232.977 67.7645C232.925 67.8927 232.849 68.0012 232.757 68.0965C232.662 68.1918 232.553 68.2641 232.425 68.3167C232.297 68.3693 232.162 68.3956 232.011 68.3956ZM232.011 68.2839C232.143 68.2839 232.264 68.2608 232.376 68.2115C232.488 68.1622 232.586 68.0965 232.672 68.011C232.757 67.9256 232.82 67.827 232.869 67.7119C232.918 67.6001 232.941 67.4752 232.941 67.347C232.941 67.2188 232.918 67.1005 232.872 66.9855C232.826 66.8737 232.76 66.7751 232.678 66.6896C232.596 66.6042 232.498 66.5351 232.382 66.4858C232.267 66.4365 232.146 66.4102 232.011 66.4102C231.876 66.4102 231.755 66.4332 231.64 66.4793C231.528 66.5253 231.429 66.591 231.344 66.6765C231.258 66.7619 231.196 66.8606 231.147 66.9723C231.101 67.0874 231.078 67.209 231.078 67.3438C231.078 67.4785 231.101 67.5903 231.143 67.7053C231.189 67.8171 231.252 67.919 231.337 68.0045C231.423 68.0899 231.518 68.1589 231.633 68.2083C231.745 68.2576 231.873 68.2806 232.008 68.2806L232.011 68.2839ZM231.643 67.9683V66.7356H231.998C232.133 66.7356 232.238 66.7652 232.31 66.8244C232.382 66.8836 232.419 66.9723 232.419 67.0907C232.419 67.1827 232.396 67.255 232.346 67.3109C232.297 67.3668 232.241 67.4062 232.175 67.4292L232.504 67.9716H232.336L232.037 67.4621H231.788V67.9716H231.643V67.9683ZM231.788 67.3405H231.988C232.073 67.3405 232.143 67.3207 232.198 67.278C232.254 67.2353 232.281 67.1761 232.281 67.0939C232.281 67.0118 232.254 66.9493 232.205 66.9132C232.152 66.877 232.083 66.8573 231.995 66.8573H231.791V67.3372L231.788 67.3405Z" fill="white"/>
<path d="M121.602 71.479H125.856H130.106V70.7756V70.0688H125.856H121.602V70.7756V71.479Z" fill="#FA6600"/>
<path d="M52.3077 69.9274H44.902V66.3018H42.6964V75.5384H44.902V71.8076H52.3077V75.5384H54.51V66.3018H52.3077V69.9274Z" fill="white"/>
<path d="M61.3799 66.3018L56.3803 75.5384H58.816L59.7988 73.7042H65.6827L66.6524 75.5384H69.1045L64.0885 66.3018H61.3799ZM64.759 71.9719H60.7061L62.7375 68.1754L64.7557 71.9719H64.759Z" fill="white"/>
<path d="M81.1779 69.5757C81.1779 67.6166 79.7907 66.3018 77.7297 66.3018H70.7612V75.5384H72.9668V72.8364H76.8488L78.4858 75.5384H81.076L79.2483 72.5636C80.4777 72.087 81.1811 71.0055 81.1811 69.5757M72.9668 68.182H77.1052C77.8941 68.182 78.9722 68.182 78.9722 69.5757C78.9722 70.9694 77.8908 70.9562 77.1052 70.9562H72.9668V68.182Z" fill="white"/>
<path d="M86.0394 66.3018H83.8338V75.5384H93.0277V73.6582H86.0394V66.3018Z" fill="white"/>
<path d="M95.1972 75.5384H104.638V73.7206H97.3995V71.6334H102.935V69.9274H97.3995V68.1195H104.638V66.3018H95.1972V75.5384Z" fill="white"/>
<path d="M112.51 70.4139L108.937 66.3018H106.215L111.406 72.3105V75.5384H113.611V72.3105L118.802 66.3018H116.067L112.51 70.4139Z" fill="white"/>
<path d="M140.92 66.3018H134.514V75.5384H140.92C144.158 75.5384 145.305 73.0501 145.305 70.9201C145.305 68.7901 144.158 66.3018 140.92 66.3018ZM143.103 70.9003C143.103 73.2177 142.005 73.6713 140.112 73.6713H136.723V68.1261H140.112C142.005 68.1261 143.103 68.5797 143.103 70.8971V70.9003Z" fill="white"/>
<path d="M163.828 73.5168L160.248 66.3018H157.75L162.723 75.5384H165.336L170.323 66.3018H167.825L163.828 73.5168Z" fill="white"/>
<path d="M172.459 75.5384H173.561H174.665V70.9201V66.3018H173.561H172.459V70.9201V75.5384Z" fill="white"/>
<path d="M196.32 66.1768C193.7 66.1768 191.025 66.4956 191.025 68.8458C191.025 70.5485 191.883 71.5149 196.402 71.7483C199.397 71.916 199.887 72.0606 199.887 72.787C199.887 73.405 199.354 73.7863 196.708 73.7863C193.812 73.7863 193.053 73.3393 192.944 72.5569H190.729C190.795 74.1972 191.653 75.6632 196.58 75.6632C199.44 75.6632 202.089 75.3049 202.089 72.7114C202.089 70.3053 199.709 70.1607 196.412 69.9634C193.733 69.7859 193.227 69.6249 193.227 68.951C193.227 68.3298 193.638 68.0537 196.067 68.0537C198.496 68.0537 199.351 68.3199 199.486 69.1154H201.698C201.57 67.1399 199.808 66.1768 196.314 66.1768" fill="white"/>
<path d="M209.554 66.1768C205.84 66.1768 203.959 67.7677 203.959 70.9068C203.959 74.046 205.843 75.6632 209.554 75.6632C213.265 75.6632 215.148 74.0624 215.148 70.9068C215.148 67.7513 213.265 66.1768 209.554 66.1768ZM212.946 70.9068C212.946 72.8791 211.93 73.7238 209.557 73.7238C207.184 73.7238 206.168 72.9086 206.168 70.9068C206.168 68.905 207.151 68.1161 209.557 68.1161C211.963 68.1161 212.946 68.9247 212.946 70.9068Z" fill="white"/>
<path d="M226.683 66.3018L226.686 73.1388L220.204 66.3346L220.174 66.3018H217.426V75.5384H219.632V68.7276L226.084 75.5055L226.114 75.5384H228.892L228.888 66.3018H226.683Z" fill="white"/>
<path d="M184.309 66.3018H177.903V75.5384H184.309C187.547 75.5384 188.694 73.0501 188.694 70.9201C188.694 68.7901 187.547 66.3018 184.309 66.3018ZM186.492 70.9003C186.492 73.2177 185.394 73.6713 183.501 73.6713H180.112V68.1261H183.501C185.394 68.1261 186.492 68.5797 186.492 70.8971V70.9003Z" fill="white"/>
<path d="M151.087 66.3018L146.087 75.5384H148.523L149.506 73.7042H155.39L156.359 75.5384H158.808L153.796 66.3018H151.087ZM154.466 71.9719H150.413L152.445 68.1754L154.463 71.9719H154.466Z" fill="white"/>
</g>
</g>
<defs>
<clipPath id="clip0_1253_10965">
<rect width="276" height="156" fill="white"/>
</clipPath>
<clipPath id="clip1_1253_10965">
<rect width="190.36" height="23.8969" fill="white" transform="translate(42.6964 66.1768)"/>
</clipPath>
</defs>
</svg>
