<svg width="121" height="16" viewBox="0 0 121 16" fill="none" xmlns="http://www.w3.org/2000/svg">
<g clip-path="url(#clip0_2767_991)">
<path d="M32.8302 15.0644H31.6314V10.4023H32.8302V15.0644Z" fill="white"/>
<path d="M39.8691 10.4023V15.0644H38.2374L35.0613 11.5679V15.0644H33.8625V10.4023H35.488L38.6703 13.9052V10.4023H39.8691Z" fill="white"/>
<path d="M41.9629 13.4595C41.9629 13.9527 42.3625 14.1796 43.8819 14.1796C45.141 14.1796 45.5198 14.0401 45.5198 13.6738C45.5198 13.2867 45.2534 13.2201 43.7424 13.1473C41.7111 13.0536 40.9056 12.7352 40.9056 11.6883C40.9056 10.6414 41.9504 10.3354 43.6966 10.3354C45.4428 10.3354 46.5209 10.7746 46.5209 11.9276H45.3221C45.3221 11.4156 44.8101 11.2887 43.5634 11.2887C42.3854 11.2887 42.1044 11.4011 42.1044 11.7486C42.1044 12.0962 42.3833 12.1753 43.7424 12.2544C45.5802 12.3543 46.7187 12.4542 46.7187 13.6322C46.7187 14.8768 45.5407 15.1307 43.8153 15.1307C41.9046 15.1307 40.7641 14.804 40.7641 13.4595H41.9629Z" fill="white"/>
<path d="M50.4525 15.131C48.4003 15.131 47.522 14.3526 47.522 12.7271V10.4023H48.7209V12.7271C48.7209 13.3807 48.8998 14.1258 50.4525 14.1258C52.0051 14.1258 52.1841 13.3723 52.1841 12.7271V10.4023H53.3829V12.7271C53.3829 14.3464 52.4963 15.131 50.4525 15.131Z" fill="white"/>
<path d="M58.8421 13.6802L59.7017 15.0664H58.2906L57.5372 13.8218H55.6057V15.0664H54.4069V10.4043H58.07C59.1293 10.4043 59.8557 11.0766 59.8557 12.1151C59.8557 12.8748 59.4686 13.4326 58.8442 13.6802H58.8421ZM55.6036 12.8144H57.7349C58.0949 12.8144 58.6548 12.8144 58.6548 12.1151C58.6548 11.4158 58.0949 11.4096 57.7349 11.4096H55.6036V12.8144Z" fill="white"/>
<path d="M65.1151 14.0736H62.3241L61.8246 15.0664H60.5051L62.909 10.4043H64.5282L66.9384 15.0664H65.6126L65.1131 14.0736H65.1151ZM64.6698 13.1807L63.7248 11.2888L62.7716 13.1807H64.6698Z" fill="white"/>
<path d="M73.7192 10.4023V15.0644H72.0875L68.9114 11.5679V15.0644H67.7126V10.4023H69.3381L72.5204 13.9052V10.4023H73.7192Z" fill="white"/>
<path d="M82.5355 11.3556V12.3005H85.3994V13.1663H82.5355V14.1112H86.2652V15.0644H81.3367V10.4023H86.2652V11.3556H82.5355Z" fill="white"/>
<path d="M77.5446 14.1255C76.3333 14.1255 75.813 13.6863 75.813 12.7268C75.813 11.7674 76.325 11.3407 77.5446 11.3407C78.4666 11.3407 79.0265 11.5946 79.1971 12.2273H80.4334C80.2544 10.9869 79.3262 10.3354 77.5446 10.3354C75.4924 10.3354 74.6141 11.1805 74.6141 12.7268C74.6141 14.2732 75.4924 15.1307 77.5446 15.1307C79.3199 15.1307 80.2482 14.4772 80.4334 13.2388H79.1951C79.0202 13.8674 78.4562 14.1255 77.5467 14.1255H77.5446Z" fill="white"/>
<path d="M119.87 1.40488C119.774 1.40488 119.684 1.38823 119.603 1.35493C119.522 1.32163 119.453 1.27376 119.393 1.21548C119.335 1.15513 119.289 1.08644 119.256 1.00527C119.222 0.924104 119.208 0.838772 119.208 0.743032C119.208 0.647293 119.224 0.559879 119.258 0.478709C119.291 0.397539 119.339 0.326775 119.399 0.268499C119.46 0.208141 119.53 0.162353 119.61 0.129052C119.691 0.0957519 119.776 0.0791016 119.87 0.0791016C119.963 0.0791016 120.051 0.0957519 120.132 0.131134C120.213 0.166516 120.282 0.212304 120.342 0.274743C120.402 0.3351 120.45 0.405864 120.482 0.487034C120.515 0.568204 120.532 0.653537 120.532 0.743032C120.532 0.832528 120.515 0.924104 120.482 1.00527C120.448 1.08644 120.4 1.15513 120.342 1.21548C120.282 1.27584 120.213 1.32163 120.132 1.35493C120.051 1.38823 119.965 1.40488 119.87 1.40488ZM119.87 1.33412C119.953 1.33412 120.03 1.31955 120.101 1.28833C120.171 1.25711 120.234 1.21548 120.288 1.16137C120.342 1.10726 120.382 1.04482 120.413 0.971974C120.444 0.90121 120.459 0.822121 120.459 0.740951C120.459 0.659781 120.444 0.584854 120.415 0.512009C120.386 0.441246 120.344 0.378807 120.292 0.324694C120.24 0.27058 120.178 0.226873 120.105 0.195654C120.032 0.164434 119.955 0.147784 119.87 0.147784C119.784 0.147784 119.707 0.162353 119.634 0.191491C119.564 0.220629 119.501 0.262255 119.447 0.316368C119.393 0.370482 119.354 0.43292 119.322 0.503684C119.293 0.576529 119.279 0.653537 119.279 0.73887C119.279 0.824203 119.293 0.894966 119.32 0.967811C119.349 1.03858 119.389 1.1031 119.443 1.15721C119.497 1.21132 119.557 1.25503 119.63 1.28625C119.701 1.31747 119.782 1.33204 119.868 1.33204L119.87 1.33412ZM119.637 1.13431V0.353832H119.861C119.947 0.353832 120.013 0.372563 120.059 0.410026C120.105 0.44749 120.128 0.503684 120.128 0.578611C120.128 0.636887 120.113 0.682675 120.082 0.718057C120.051 0.753439 120.015 0.778414 119.974 0.792983L120.182 1.1364H120.076L119.886 0.813796H119.728V1.1364H119.637V1.13431ZM119.728 0.736788H119.855C119.909 0.736788 119.953 0.724301 119.988 0.697244C120.024 0.670187 120.04 0.632724 120.04 0.580692C120.04 0.52866 120.024 0.489115 119.992 0.466221C119.959 0.443327 119.915 0.430839 119.859 0.430839H119.73V0.734707L119.728 0.736788Z" fill="white"/>
<path d="M49.9613 3.35723H52.6545H55.3456V2.91183V2.46436H52.6545H49.9613V2.91183V3.35723Z" fill="#FA6600"/>
<path d="M6.08567 2.37476H1.39653V0.0791016H-1.52588e-05V5.92752H1.39653V3.56526H6.08567V5.92752H7.48013V0.0791016H6.08567V2.37476Z" fill="white"/>
<path d="M11.83 0.0791016L8.66437 5.92752H10.2066L10.8289 4.76616H14.5544L15.1684 5.92752H16.721L13.545 0.0791016H11.83ZM13.9696 3.66932H11.4033L12.6896 1.26544L13.9675 3.66932H13.9696Z" fill="white"/>
<path d="M24.3656 2.15206C24.3656 0.911617 23.4873 0.0791016 22.1823 0.0791016H17.77V5.92752H19.1665V4.2167H21.6245L22.661 5.92752H24.3011L23.1439 4.04395C23.9223 3.74217 24.3677 3.05742 24.3677 2.15206M19.1665 1.2696H21.7869C22.2864 1.2696 22.969 1.2696 22.969 2.15206C22.969 3.03453 22.2843 3.0262 21.7869 3.0262H19.1665V1.2696Z" fill="white"/>
<path d="M27.4438 0.0791016H26.0473V5.92752H31.8686V4.73702H27.4438V0.0791016Z" fill="white"/>
<path d="M33.2423 5.92752H39.2198V4.77657H34.6368V3.45495H38.1417V2.37476H34.6368V1.23005H39.2198V0.0791016H33.2423V5.92752Z" fill="white"/>
<path d="M44.2044 2.68279L41.9421 0.0791016H40.2188L43.5051 3.8837V5.92752H44.9017V3.8837L48.188 0.0791016H46.4564L44.2044 2.68279Z" fill="white"/>
<path d="M62.193 0.0791016H58.1366V5.92752H62.193C64.2431 5.92752 64.9695 4.35199 64.9695 3.00331C64.9695 1.65464 64.2431 0.0791016 62.193 0.0791016ZM63.575 2.99082C63.575 4.45813 62.8799 4.74535 61.681 4.74535H59.5352V1.23422H61.681C62.8799 1.23422 63.575 1.52143 63.575 2.98874V2.99082Z" fill="white"/>
<path d="M76.6975 4.64753L74.431 0.0791016H72.8492L75.9982 5.92752H77.6528L80.8101 0.0791016H79.2284L76.6975 4.64753Z" fill="white"/>
<path d="M82.163 5.92752H82.8602H83.5595V3.00331V0.0791016H82.8602H82.163V3.00331V5.92752Z" fill="white"/>
<path d="M97.271 0C95.6123 0 93.9181 0.201885 93.9181 1.69001C93.9181 2.76811 94.4613 3.38001 97.3231 3.52778C99.2191 3.63393 99.5292 3.72551 99.5292 4.18547C99.5292 4.57675 99.1921 4.81818 97.5166 4.81818C95.683 4.81818 95.2022 4.53513 95.1336 4.03978H93.7308C93.7724 5.07834 94.3156 6.0066 97.4355 6.0066C99.2462 6.0066 100.924 5.77974 100.924 4.1376C100.924 2.6141 99.4169 2.52252 97.3293 2.39764C95.6331 2.28525 95.3126 2.18327 95.3126 1.75661C95.3126 1.36324 95.5727 1.18842 97.1108 1.18842C98.6489 1.18842 99.19 1.357 99.2753 1.86067H100.676C100.595 0.609817 99.4793 0 97.2669 0" fill="white"/>
<path d="M105.65 0C103.298 0 102.108 1.00734 102.108 2.99497C102.108 4.9826 103.301 6.0066 105.65 6.0066C108 6.0066 109.193 4.99301 109.193 2.99497C109.193 0.996937 108 0 105.65 0ZM107.798 2.99497C107.798 4.24375 107.155 4.77864 105.652 4.77864C104.15 4.77864 103.507 4.26248 103.507 2.99497C103.507 1.72747 104.129 1.22796 105.652 1.22796C107.176 1.22796 107.798 1.73996 107.798 2.99497Z" fill="white"/>
<path d="M116.496 0.0791016L116.498 4.40818L112.394 0.0999144L112.375 0.0791016H110.635V5.92752H112.032V1.61509L116.117 5.90671L116.136 5.92752H117.895L117.892 0.0791016H116.496Z" fill="white"/>
<path d="M89.6661 0.0791016H85.6096V5.92752H89.6661C91.7161 5.92752 92.4425 4.35199 92.4425 3.00331C92.4425 1.65464 91.7161 0.0791016 89.6661 0.0791016ZM91.048 2.99082C91.048 4.45813 90.3529 4.74535 89.1541 4.74535H87.0082V1.23422H89.1541C90.3529 1.23422 91.048 1.52143 91.048 2.98874V2.99082Z" fill="white"/>
<path d="M68.6305 0.0791016L65.4648 5.92752H67.007L67.6294 4.76616H71.3549L71.9688 5.92752H73.5194L70.3454 0.0791016H68.6305ZM70.77 3.66932H68.2038L69.49 1.26544L70.7679 3.66932H70.77Z" fill="white"/>
</g>
<defs>
<clipPath id="clip0_2767_991">
<rect width="120.532" height="15.131" fill="white"/>
</clipPath>
</defs>
</svg>
